# xmcd
#
# Track frame offsets: 
#        150
#        28562
#        60140
#        89122
#        120362
#        137817
#        156390
#
# Disc length: 2542 seconds
#
# Revision: 0
# Processed by: cddbd v1.5.1PL0 Copyright (c) Steve Scherf et al.
# Submitted via: ExactAudioCopy v0.95a5
#
DISCID=5509ec07
DTITLE=Big Head Todd And The Monsters - Strategem Live Disc 2
DYEAR=1994
DGENRE=Blues
TTITLE0=Someone's Gonna Love You
TTITLE1=When It Hurts
TTITLE2=What Will You Do When I'm Gone
TTITLE3=Circle
TTITLE4=Tangerine
TTITLE5=Silent Handed
TTITLE6=Voodoo Chile
EXTD=
EXTT0=
EXTT1=
EXTT2=
EXTT3=
EXTT4=
EXTT5=
EXTT6=
PLAYORDER=
